<svg width="34" height="26" viewBox="0 0 34 26" fill="none" xmlns="http://www.w3.org/2000/svg">
<g clip-path="url(#clip0_2218_6511)">
<path d="M5.99041 25.5843V23.8806C5.99041 23.2273 5.59277 22.8015 4.94008 22.8015C4.59729 22.8015 4.2305 22.9153 3.97477 23.2814C3.77595 22.9688 3.49486 22.8015 3.06637 22.8015C2.90705 22.7946 2.74852 22.8273 2.60494 22.8967C2.46137 22.9661 2.33724 23.07 2.24366 23.1992V22.8564H1.7041V25.5823H2.24366V24.0225C2.24366 23.5426 2.52749 23.313 2.92514 23.313C3.32278 23.313 3.54971 23.5687 3.54971 24.0225V25.5843H4.08927V24.0225C4.08927 23.5426 4.3731 23.313 4.77074 23.313C5.16839 23.313 5.39532 23.5687 5.39532 24.0225V25.5843H5.99041ZM14.8496 22.8865H13.8555V22.0638H13.3173V22.8865H12.7496V23.3664H13.3173V24.6471C13.3173 25.2717 13.5442 25.6412 14.2257 25.6412C14.4839 25.6358 14.7369 25.5676 14.9627 25.4424L14.792 24.9625C14.6388 25.0582 14.4612 25.1075 14.2806 25.1044C13.9967 25.1044 13.8548 24.9337 13.8548 24.6499V23.3445H14.8489V22.89L14.8496 22.8865ZM19.9038 22.8015C19.7568 22.7982 19.6115 22.8332 19.4821 22.9029C19.3527 22.9726 19.2435 23.0746 19.1654 23.1992V22.8564H18.6258V25.5823H19.1654V24.0513C19.1654 23.5968 19.3923 23.313 19.7618 23.313C19.8865 23.318 20.0103 23.3371 20.1307 23.3699L20.3014 22.8584C20.1712 22.8256 20.0379 22.8065 19.9038 22.8015ZM12.2656 23.0853C11.9818 22.8865 11.5841 22.8015 11.1584 22.8015C10.4769 22.8015 10.0512 23.1141 10.0512 23.6537C10.0512 24.1082 10.3638 24.3633 10.9596 24.449L11.2434 24.4771C11.556 24.534 11.7548 24.6478 11.7548 24.7897C11.7548 24.9885 11.5279 25.1325 11.1015 25.1325C10.7759 25.1392 10.4569 25.0396 10.1931 24.8487L9.90924 25.2744C10.3069 25.5583 10.7895 25.6172 11.0747 25.6172C11.87 25.6172 12.2958 25.2484 12.2958 24.7369C12.2958 24.257 11.953 24.0273 11.3586 23.9416L11.0747 23.9135C10.819 23.8854 10.5948 23.7997 10.5948 23.6297C10.5948 23.4309 10.8218 23.2869 11.1344 23.2869C11.4772 23.2869 11.8159 23.4288 11.9866 23.5138L12.2656 23.0853ZM20.5002 24.2214C20.5002 25.0441 21.0398 25.6412 21.9201 25.6412C22.3177 25.6412 22.6016 25.5562 22.8854 25.3286L22.6016 24.9028C22.4006 25.0656 22.1506 25.1557 21.892 25.1586C21.4121 25.1586 21.0398 24.7897 21.0398 24.2502C21.0398 23.7106 21.4073 23.3445 21.892 23.3445C22.1506 23.3474 22.4006 23.4375 22.6016 23.6002L22.8854 23.1745C22.6016 22.9475 22.3177 22.8618 21.9201 22.8618C21.0679 22.8049 20.5002 23.4014 20.5002 24.2248V24.2214ZM16.6952 22.8015C15.8999 22.8015 15.3604 23.3692 15.3604 24.2214C15.3604 25.0736 15.928 25.6412 16.7514 25.6412C17.152 25.6497 17.5432 25.5194 17.8586 25.2724L17.5748 24.8747C17.3467 25.0515 17.0681 25.151 16.7795 25.1586C16.4107 25.1586 16.013 24.9316 15.9568 24.449H17.9731V24.2221C17.9731 23.3699 17.4617 22.8022 16.6952 22.8022V22.8015ZM16.6671 23.313C17.0647 23.313 17.3486 23.5687 17.3767 23.9944H15.9006C15.9856 23.5968 16.2434 23.313 16.6671 23.313ZM9.31277 24.2214V22.8584H8.77322V23.2012C8.5744 22.9455 8.2933 22.8036 7.89292 22.8036C7.12643 22.8036 6.55808 23.4 6.55808 24.2234C6.55808 25.0468 7.12574 25.6433 7.89292 25.6433C8.29056 25.6433 8.5744 25.5014 8.77322 25.2456V25.5884H9.31277V24.2214ZM7.12643 24.2214C7.12643 23.7099 7.43906 23.313 7.97862 23.313C8.49007 23.313 8.80133 23.7106 8.80133 24.2214C8.80133 24.7609 8.45853 25.1298 7.97862 25.1298C7.43906 25.1579 7.12643 24.7321 7.12643 24.2214ZM28.111 22.8015C27.964 22.7982 27.8187 22.8332 27.6893 22.9029C27.5598 22.9726 27.4507 23.0746 27.3726 23.1992V22.8564H26.833V25.5823H27.3719V24.0513C27.3719 23.5968 27.5988 23.313 27.9684 23.313C28.0931 23.318 28.2168 23.3371 28.3372 23.3699L28.5079 22.8584C28.3777 22.8256 28.2444 22.8065 28.1103 22.8015H28.111ZM26.0096 24.2214V22.8584H25.4701V23.2012C25.2712 22.9455 24.9902 22.8036 24.5898 22.8036C23.8233 22.8036 23.2549 23.4 23.2549 24.2234C23.2549 25.0468 23.8226 25.6433 24.5898 25.6433C24.9874 25.6433 25.2712 25.5014 25.4701 25.2456V25.5884H26.0096V24.2214ZM23.8233 24.2214C23.8233 23.7099 24.1359 23.313 24.6755 23.313C25.1869 23.313 25.4982 23.7106 25.4982 24.2214C25.4982 24.7609 25.1554 25.1298 24.6755 25.1298C24.1359 25.1579 23.8233 24.7321 23.8233 24.2214ZM31.4902 24.2214V21.7793H30.9507V23.1992C30.7518 22.9434 30.4708 22.8015 30.0704 22.8015C29.3039 22.8015 28.7355 23.398 28.7355 24.2214C28.7355 25.0448 29.3032 25.6412 30.0704 25.6412C30.468 25.6412 30.7518 25.4993 30.9507 25.2436V25.5864H31.4902V24.2214ZM29.3039 24.2214C29.3039 23.7099 29.6165 23.313 30.1561 23.313C30.6675 23.313 30.9788 23.7106 30.9788 24.2214C30.9788 24.7609 30.636 25.1298 30.1561 25.1298C29.6158 25.1586 29.3032 24.7328 29.3032 24.2214H29.3039Z" fill="black"/>
<path d="M11.6416 2.18652H21.4949V18.2581H11.6416V2.18652Z" fill="#FF5F00"/>
<path d="M12.6346 10.2224C12.6349 8.67629 12.985 7.15031 13.6587 5.75869C14.3323 4.36708 15.3121 3.1459 16.5246 2.18659C15.0167 1.00101 13.2056 0.263631 11.2984 0.0587352C9.39123 -0.146161 7.46487 0.189699 5.73954 1.02792C4.0142 1.86615 2.55953 3.17291 1.54181 4.79883C0.524084 6.42475 -0.015625 8.30422 -0.015625 10.2224C-0.015625 12.1406 0.524084 14.02 1.54181 15.646C2.55953 17.2719 4.0142 18.5786 5.73954 19.4169C7.46487 20.2551 9.39123 20.5909 11.2984 20.386C13.2056 20.1812 15.0167 19.4438 16.5246 18.2582C15.3121 17.2989 14.3323 16.0777 13.6587 14.6861C12.985 13.2945 12.6349 11.7685 12.6346 10.2224Z" fill="#EB001B"/>
<path d="M33.0784 10.2224C33.0798 12.1392 32.5417 14.0177 31.5256 15.643C30.5095 17.2683 29.0566 18.5749 27.3328 19.4132C25.6091 20.2515 23.6842 20.5878 21.7784 20.3836C19.8725 20.1793 18.0626 19.4428 16.5557 18.2582C17.7684 17.2992 18.7484 16.0781 19.4221 14.6864C20.0958 13.2947 20.4458 11.7686 20.4458 10.2224C20.4458 8.67627 20.0958 7.15016 19.4221 5.75849C18.7484 4.36682 17.7684 3.1457 16.5557 2.18664C18.0626 1.00209 19.8725 0.265567 21.7784 0.0613201C23.6842 -0.142927 25.6091 0.193346 27.3328 1.03168C29.0566 1.87001 30.5095 3.17655 31.5256 4.80187C32.5417 6.42719 33.0798 8.30566 33.0784 10.2224Z" fill="#F79E1B"/>
</g>
<defs>
<clipPath id="clip0_2218_6511">
<rect width="33.0804" height="25.6411" fill="white"/>
</clipPath>
</defs>
</svg>
