<svg width="40" height="26" viewBox="0 0 40 26" fill="none" xmlns="http://www.w3.org/2000/svg">
<g clip-path="url(#clip0_2218_6517)">
<path d="M2.05128 0H37.9487C39.0816 0 40 0.91841 40 2.05128V23.5897C40 24.7227 39.0816 25.641 37.9487 25.641H2.05128C0.91841 25.641 0 24.7227 0 23.5897V2.05128C0 0.91841 0.91841 0 2.05128 0Z" fill="#0E4595"/>
<path d="M15.037 17.8835L16.7479 7.84451H19.4843L17.7722 17.8835H15.037ZM27.6581 8.06092C27.116 7.85754 26.2664 7.63928 25.2057 7.63928C22.5018 7.63928 20.5972 9.00082 20.581 10.9523C20.5657 12.3948 21.9407 13.1995 22.9786 13.6797C24.0438 14.1718 24.4018 14.4856 24.3967 14.925C24.39 15.5979 23.5462 15.9053 22.7597 15.9053C21.6645 15.9053 21.0826 15.7532 20.184 15.3784L19.8313 15.2189L19.4473 17.4662C20.0864 17.7464 21.2683 17.9892 22.4954 18.0017C25.3718 18.0017 27.239 16.6558 27.2603 14.5719C27.2705 13.4299 26.5416 12.5608 24.9628 11.8443C24.0064 11.3799 23.4207 11.07 23.4269 10.5998C23.4269 10.1825 23.9227 9.73626 24.9939 9.73626C25.8887 9.72241 26.537 9.91754 27.042 10.1209L27.2872 10.2368L27.6581 8.06092ZM34.6996 7.84436H32.5851C31.9301 7.84436 31.4399 8.02318 31.1523 8.67687L27.0885 17.8769H29.9619C29.9619 17.8769 30.4316 16.6398 30.5379 16.3683C30.852 16.3683 33.6432 16.3726 34.0424 16.3726C34.1242 16.724 34.3752 17.8769 34.3752 17.8769H36.9144L34.6996 7.84405V7.84436ZM31.3448 14.3269C31.5711 13.7485 32.4351 11.5206 32.4351 11.5206C32.4189 11.5474 32.6597 10.9394 32.7979 10.5625L32.9827 11.4281C32.9827 11.4281 33.5068 13.8244 33.6163 14.3269H31.3448ZM12.7141 7.84436L10.0351 14.6905L9.7496 13.2992C9.25088 11.6955 7.69704 9.95795 5.95996 9.08805L8.4095 17.8675L11.3047 17.8643L15.6126 7.84426H12.7141" fill="white"/>
<path d="M7.5342 7.8442H3.12184L3.08691 8.05307C6.51963 8.88405 8.79102 10.8922 9.73409 13.3049L8.77461 8.69153C8.60897 8.05589 8.12861 7.8662 7.5343 7.84399" fill="#F2AE14"/>
</g>
<defs>
<clipPath id="clip0_2218_6517">
<rect width="40" height="25.641" fill="white"/>
</clipPath>
</defs>
</svg>
